# xmcd
#
# Track frame offsets: 
#        150
#        10935
#        23406
#        38335
#        50938
#        64996
#        81207
#        97926
#        109094
#        126406
#        140653
#        154133
#        168348
#        177900
#
# Disc length: 2527 seconds
#
# Revision: 0
# Processed by: cddbd v1.5.1PL2 Copyright (c) Steve Scherf et al.
# Submitted via: ExactAudioCopy v0.95b3
#
DISCID=b409dd0e
DTITLE=The Carter Family - The Carter Family With June Carter
DYEAR=2004
DGENRE=Country
TTITLE0=Baby Ride Easy
TTITLE1=Gotta Move On
TTITLE2=Jesus
TTITLE3=Loving Me On His Mind
TTITLE4=Maybe You're The One
TTITLE5=Maybelle
TTITLE6=Southern Cross
TTITLE7=The Moon Just Turned Blue
TTITLE8=Will The Circle Be Unbroken
TTITLE9=Will You Remember
TTITLE10=Woman's Touch
TTITLE11=Yankee Don't Go Home
TTITLE12=It Takes A Worried Man
TTITLE13=Wildwood Flower
EXTD=(c)2004 BCI\nupc 787364084029
EXTT0=
EXTT1=
EXTT2=
EXTT3=
EXTT4=
EXTT5=
EXTT6=
EXTT7=
EXTT8=
EXTT9=
EXTT10=
EXTT11=
EXTT12=
EXTT13=
PLAYORDER=
